<svg xmlns="http://www.w3.org/2000/svg" width="114" height="26" viewBox="0 0 114 26" fill="none"><path d="M17.7347 10.6542V15.2358H3.19173V10.6542H17.7347ZM7.74766 12.945L6.56364 20.1264L4.04114 17.3465H18.6871V19.4081L15.8851 22.5974H0L1.41569 12.945L0 3.2926H21.8081L26.0795 8.54351H4.04114L6.56364 5.76362L7.74766 12.945Z" fill="#0A0D0A"></path><path d="M34.4862 11.8255V7.73287L44.2673 19.8048H36.1078L30.3421 12.1601H33.6883L22.1759 25.5H14.1194L29.6729 7.73287V11.8255L20.3036 0.5H28.6176L33.817 7.37251H30.4708L35.5673 0.5H43.7783L34.4862 11.8255Z" fill="#0A0D0A"></path><path d="M107.56 20.1207L106.887 15.4103L107.56 13.4612L106.887 11.5352L107.56 6.77841H113.685L112.757 13.438L113.685 20.1207H107.56ZM108.789 13.4612C108.635 14.8843 108.248 16.1296 107.629 17.197C107.026 18.2489 106.229 19.0688 105.239 19.6566C104.265 20.2445 103.143 20.5384 101.875 20.5384C100.575 20.5384 99.4304 20.2445 98.4404 19.6566C97.4658 19.0688 96.7001 18.2412 96.1432 17.1738C95.6018 16.1064 95.3311 14.8689 95.3311 13.4612C95.3311 12.038 95.6018 10.7927 96.1432 9.72532C96.7001 8.65793 97.4658 7.83032 98.4404 7.24249C99.4304 6.65465 100.575 6.36073 101.875 6.36073C103.143 6.36073 104.265 6.65465 105.239 7.24249C106.229 7.81485 107.034 8.63473 107.652 9.70211C108.271 10.754 108.65 12.007 108.789 13.4612ZM101.271 13.4612C101.271 13.9717 101.372 14.428 101.573 14.8302C101.79 15.2169 102.083 15.5263 102.455 15.7584C102.841 15.9904 103.282 16.1064 103.777 16.1064C104.288 16.1064 104.783 15.9904 105.262 15.7584C105.742 15.5263 106.16 15.2169 106.515 14.8302C106.887 14.428 107.142 13.9717 107.281 13.4612C107.142 12.9507 106.887 12.4943 106.515 12.0921C106.16 11.6899 105.742 11.3728 105.262 11.1408C104.783 10.9087 104.288 10.7927 103.777 10.7927C103.282 10.7927 102.841 10.9087 102.455 11.1408C102.083 11.3728 101.79 11.6899 101.573 12.0921C101.372 12.4943 101.271 12.9507 101.271 13.4612Z" fill="#0A0D0A"></path><path d="M87.6831 2.25372H93.5769V20.1208H87.6831V2.25372Z" fill="#0A0D0A"></path><path d="M79.5703 2.25372H85.4641V20.1208H79.5703V2.25372Z" fill="#0A0D0A"></path><path d="M70.3121 20.5384C68.6569 20.5384 67.1718 20.2445 65.8569 19.6566C64.5575 19.0533 63.5288 18.218 62.7708 17.1506C62.0128 16.0677 61.6338 14.8147 61.6338 13.3916C61.6338 11.9838 61.9973 10.754 62.7244 9.70211C63.4669 8.6502 64.4724 7.83032 65.7409 7.24249C67.0094 6.65465 68.4326 6.36073 70.0104 6.36073C71.6657 6.36073 73.0734 6.70106 74.2336 7.38171C75.3938 8.06236 76.2833 9.0292 76.902 10.2822C77.5208 11.5198 77.8302 12.9893 77.8302 14.691H66.4602V11.9761H74.396L72.8181 12.8579C72.7408 12.2546 72.5861 11.7518 72.354 11.3496C72.122 10.9474 71.8126 10.6457 71.4259 10.4446C71.0546 10.2281 70.606 10.1198 70.0801 10.1198C69.4922 10.1198 68.9895 10.2513 68.5718 10.5143C68.1696 10.7772 67.8602 11.1408 67.6436 11.6048C67.4425 12.0535 67.342 12.5639 67.342 13.1363C67.342 13.8788 67.5044 14.5053 67.8293 15.0158C68.1696 15.5109 68.6801 15.8899 69.3607 16.1528C70.0414 16.4158 70.8999 16.5473 71.9364 16.5473C72.9419 16.5473 73.9164 16.4235 74.8601 16.176C75.8192 15.9131 76.7009 15.5418 77.5053 15.0622V18.4036C76.5153 19.0997 75.386 19.6334 74.1175 20.0047C72.8645 20.3605 71.596 20.5384 70.3121 20.5384Z" fill="#0A0D0A"></path><path d="M60.5638 14.2501C60.4555 15.5031 60.0146 16.6014 59.2412 17.5451C58.4677 18.4887 57.4545 19.2235 56.2014 19.7495C54.9639 20.2754 53.5639 20.5384 52.0015 20.5384C50.2999 20.5384 48.7994 20.2445 47.4999 19.6566C46.2005 19.0533 45.1873 18.218 44.4602 17.1506C43.7332 16.0832 43.3696 14.8534 43.3696 13.4612C43.3696 12.0535 43.7332 10.8236 44.4602 9.77172C45.1873 8.70434 46.2005 7.86899 47.4999 7.26569C48.7994 6.66239 50.2999 6.36073 52.0015 6.36073C53.5639 6.36073 54.9639 6.62371 56.2014 7.14967C57.4545 7.67563 58.4677 8.41042 59.2412 9.35405C60.0146 10.2822 60.4555 11.3805 60.5638 12.649H54.7396C54.6004 11.9838 54.2833 11.4888 53.7882 11.164C53.3087 10.8236 52.7131 10.6535 52.0015 10.6535C51.4601 10.6535 50.9805 10.7618 50.5629 10.9783C50.1607 11.1794 49.8513 11.4888 49.6347 11.9065C49.4181 12.3242 49.3099 12.8424 49.3099 13.4612C49.3099 14.0799 49.4181 14.5982 49.6347 15.0158C49.8513 15.418 50.1607 15.7274 50.5629 15.944C50.9805 16.1451 51.4601 16.2456 52.0015 16.2456C52.7131 16.2456 53.3087 16.0677 53.7882 15.712C54.2833 15.3407 54.6004 14.8534 54.7396 14.2501H60.5638Z" fill="#0A0D0A"></path></svg>